<svg width="400" height="300" viewBox="0 0 400 300" fill="none" xmlns="http://www.w3.org/2000/svg">
<rect width="400" height="300" rx="5" fill="#D9D4E7"/>
<path d="M105.66 142.96V157H102.24V142.96H105.66ZM124.038 142.96V157H120.618V148.58L117.478 157H114.718L111.558 148.56V157H108.138V142.96H112.178L116.118 152.68L120.018 142.96H124.038ZM135.238 154.52H129.998L129.158 157H125.578L130.658 142.96H134.618L139.698 157H136.078L135.238 154.52ZM134.358 151.88L132.618 146.74L130.898 151.88H134.358ZM150.564 147.4C150.311 146.933 149.944 146.58 149.464 146.34C148.997 146.087 148.444 145.96 147.804 145.96C146.697 145.96 145.811 146.327 145.144 147.06C144.477 147.78 144.144 148.747 144.144 149.96C144.144 151.253 144.491 152.267 145.184 153C145.891 153.72 146.857 154.08 148.084 154.08C148.924 154.08 149.631 153.867 150.204 153.44C150.791 153.013 151.217 152.4 151.484 151.6H147.144V149.08H154.584V152.26C154.331 153.113 153.897 153.907 153.284 154.64C152.684 155.373 151.917 155.967 150.984 156.42C150.051 156.873 148.997 157.1 147.824 157.1C146.437 157.1 145.197 156.8 144.104 156.2C143.024 155.587 142.177 154.74 141.564 153.66C140.964 152.58 140.664 151.347 140.664 149.96C140.664 148.573 140.964 147.34 141.564 146.26C142.177 145.167 143.024 144.32 144.104 143.72C145.184 143.107 146.417 142.8 147.804 142.8C149.484 142.8 150.897 143.207 152.044 144.02C153.204 144.833 153.971 145.96 154.344 147.4H150.564ZM159.898 145.7V148.54H164.478V151.18H159.898V154.26H165.078V157H156.478V142.96H165.078V145.7H159.898ZM183.199 142.96V157H179.779V148.58L176.639 157H173.879L170.719 148.56V157H167.299V142.96H171.339L175.279 152.68L179.179 142.96H183.199ZM195.156 142.96C196.636 142.96 197.93 143.253 199.036 143.84C200.143 144.427 200.996 145.253 201.596 146.32C202.21 147.373 202.516 148.593 202.516 149.98C202.516 151.353 202.21 152.573 201.596 153.64C200.996 154.707 200.136 155.533 199.016 156.12C197.91 156.707 196.623 157 195.156 157H189.896V142.96H195.156ZM194.936 154.04C196.23 154.04 197.236 153.687 197.956 152.98C198.676 152.273 199.036 151.273 199.036 149.98C199.036 148.687 198.676 147.68 197.956 146.96C197.236 146.24 196.23 145.88 194.936 145.88H193.316V154.04H194.936ZM211.068 157.14C209.748 157.14 208.534 156.833 207.428 156.22C206.334 155.607 205.461 154.753 204.808 153.66C204.167 152.553 203.847 151.313 203.847 149.94C203.847 148.567 204.167 147.333 204.808 146.24C205.461 145.147 206.334 144.293 207.428 143.68C208.534 143.067 209.748 142.76 211.068 142.76C212.388 142.76 213.594 143.067 214.688 143.68C215.794 144.293 216.661 145.147 217.288 146.24C217.928 147.333 218.248 148.567 218.248 149.94C218.248 151.313 217.928 152.553 217.288 153.66C216.648 154.753 215.781 155.607 214.688 156.22C213.594 156.833 212.388 157.14 211.068 157.14ZM211.068 154.02C212.188 154.02 213.081 153.647 213.747 152.9C214.428 152.153 214.768 151.167 214.768 149.94C214.768 148.7 214.428 147.713 213.747 146.98C213.081 146.233 212.188 145.86 211.068 145.86C209.934 145.86 209.028 146.227 208.348 146.96C207.681 147.693 207.348 148.687 207.348 149.94C207.348 151.18 207.681 152.173 208.348 152.92C209.028 153.653 209.934 154.02 211.068 154.02ZM235.088 147.48C235.088 148.293 234.902 149.04 234.528 149.72C234.155 150.387 233.582 150.927 232.808 151.34C232.035 151.753 231.075 151.96 229.928 151.96H227.808V157H224.388V142.96H229.928C231.048 142.96 231.995 143.153 232.768 143.54C233.542 143.927 234.122 144.46 234.508 145.14C234.895 145.82 235.088 146.6 235.088 147.48ZM229.668 149.24C230.322 149.24 230.808 149.087 231.128 148.78C231.448 148.473 231.608 148.04 231.608 147.48C231.608 146.92 231.448 146.487 231.128 146.18C230.808 145.873 230.322 145.72 229.668 145.72H227.808V149.24H229.668ZM244.029 157L241.109 151.7H240.289V157H236.869V142.96H242.609C243.716 142.96 244.656 143.153 245.429 143.54C246.216 143.927 246.802 144.46 247.189 145.14C247.576 145.807 247.769 146.553 247.769 147.38C247.769 148.313 247.502 149.147 246.969 149.88C246.449 150.613 245.676 151.133 244.649 151.44L247.889 157H244.029ZM240.289 149.28H242.409C243.036 149.28 243.502 149.127 243.809 148.82C244.129 148.513 244.289 148.08 244.289 147.52C244.289 146.987 244.129 146.567 243.809 146.26C243.502 145.953 243.036 145.8 242.409 145.8H240.289V149.28ZM256.556 157.14C255.236 157.14 254.022 156.833 252.916 156.22C251.822 155.607 250.949 154.753 250.296 153.66C249.656 152.553 249.336 151.313 249.336 149.94C249.336 148.567 249.656 147.333 250.296 146.24C250.949 145.147 251.822 144.293 252.916 143.68C254.022 143.067 255.236 142.76 256.556 142.76C257.876 142.76 259.082 143.067 260.176 143.68C261.282 144.293 262.149 145.147 262.776 146.24C263.416 147.333 263.736 148.567 263.736 149.94C263.736 151.313 263.416 152.553 262.776 153.66C262.136 154.753 261.269 155.607 260.176 156.22C259.082 156.833 257.876 157.14 256.556 157.14ZM256.556 154.02C257.676 154.02 258.569 153.647 259.236 152.9C259.916 152.153 260.256 151.167 260.256 149.94C260.256 148.7 259.916 147.713 259.236 146.98C258.569 146.233 257.676 145.86 256.556 145.86C255.422 145.86 254.516 146.227 253.836 146.96C253.169 147.693 252.836 148.687 252.836 149.94C252.836 151.18 253.169 152.173 253.836 152.92C254.516 153.653 255.422 154.02 256.556 154.02ZM274.438 142.96V152.52C274.438 154 274.018 155.14 273.178 155.94C272.352 156.74 271.232 157.14 269.818 157.14C268.338 157.14 267.152 156.72 266.258 155.88C265.365 155.04 264.918 153.847 264.918 152.3H268.318C268.318 152.887 268.438 153.333 268.678 153.64C268.918 153.933 269.265 154.08 269.718 154.08C270.132 154.08 270.452 153.947 270.678 153.68C270.905 153.413 271.018 153.027 271.018 152.52V142.96H274.438ZM280.621 145.7V148.54H285.201V151.18H280.621V154.26H285.801V157H277.201V142.96H285.801V145.7H280.621ZM298.121 142.96V145.7H294.401V157H290.981V145.7H287.261V142.96H298.121ZM306.478 157.14C305.158 157.14 303.944 156.833 302.838 156.22C301.744 155.607 300.871 154.753 300.218 153.66C299.578 152.553 299.258 151.313 299.258 149.94C299.258 148.567 299.578 147.333 300.218 146.24C300.871 145.147 301.744 144.293 302.838 143.68C303.944 143.067 305.158 142.76 306.478 142.76C307.798 142.76 309.004 143.067 310.098 143.68C311.204 144.293 312.071 145.147 312.698 146.24C313.338 147.333 313.658 148.567 313.658 149.94C313.658 151.313 313.338 152.553 312.698 153.66C312.058 154.753 311.191 155.607 310.098 156.22C309.004 156.833 307.798 157.14 306.478 157.14ZM306.478 154.02C307.598 154.02 308.491 153.647 309.158 152.9C309.838 152.153 310.178 151.167 310.178 149.94C310.178 148.7 309.838 147.713 309.158 146.98C308.491 146.233 307.598 145.86 306.478 145.86C305.344 145.86 304.438 146.227 303.758 146.96C303.091 147.693 302.758 148.687 302.758 149.94C302.758 151.18 303.091 152.173 303.758 152.92C304.438 153.653 305.344 154.02 306.478 154.02Z" fill="#A786DF"/>
</svg>
