<svg width="50" height="50" viewBox="0 0 50 50" fill="none" xmlns="http://www.w3.org/2000/svg">
<path d="M24.992 4.57752C20.0169 4.57258 15.2025 6.3396 11.4118 9.5619C7.62117 12.7842 5.10192 17.2511 4.3056 22.1622C3.50928 27.0732 4.48794 32.1073 7.06618 36.3624C9.64443 40.6174 13.6537 43.8151 18.3755 45.3826C19.4197 45.5662 19.7532 44.9513 19.7532 44.3983C19.7532 43.8991 19.7631 42.5115 19.7532 40.7566C13.9253 42.0204 12.7214 37.9994 12.7214 37.9994C12.3376 36.7341 11.5141 35.6478 10.3994 34.9367C8.49872 33.639 10.5412 33.6629 10.5412 33.6629C11.205 33.754 11.8391 33.9956 12.3952 34.3693C12.9513 34.743 13.4146 35.239 13.7496 35.8192C14.0331 36.3353 14.4161 36.7901 14.8765 37.1573C15.3368 37.5245 15.8654 37.7969 16.4316 37.9586C16.9979 38.1203 17.5906 38.1681 18.1754 38.0994C18.7603 38.0307 19.3257 37.8467 19.839 37.5582C19.9388 36.5 20.408 35.5117 21.1687 34.769C16.5208 34.2379 11.6333 32.4431 11.6333 24.419C11.6029 22.3381 12.3751 20.3254 13.7895 18.7988C13.1496 16.9939 13.2231 15.0128 13.9952 13.2604C13.9952 13.2604 15.7561 12.6974 19.7512 15.4087C23.183 14.467 26.8051 14.467 30.2369 15.4087C34.244 12.6994 35.9889 13.2604 35.9889 13.2604C36.7616 15.0134 36.8354 16.9939 36.1966 18.7988C37.6116 20.3257 38.3832 22.3395 38.3508 24.421C38.3508 32.467 33.4553 34.2359 28.7894 34.751C29.2905 35.2544 29.6777 35.8594 29.925 36.5251C30.1723 37.1909 30.2739 37.902 30.2229 38.6103V44.4082C30.2229 44.9673 30.5624 45.5862 31.6245 45.3826C36.3452 43.8124 40.3525 40.6127 42.9285 36.3567C45.5046 32.1007 46.481 27.0664 45.6828 22.156C44.8847 17.2455 42.3641 12.7797 38.5727 9.55861C34.7814 6.33754 29.967 4.57172 24.992 4.57752Z" stroke="#A786DF" stroke-linecap="round" stroke-linejoin="round"/>
</svg>
