<svg width="20" height="20" viewBox="0 0 20 20" fill="none" xmlns="http://www.w3.org/2000/svg">
<path d="M9.99682 1.83106C8.00674 1.82909 6.08101 2.53589 4.56474 3.82481C3.04847 5.11373 2.04077 6.90051 1.72224 8.86492C1.40371 10.8293 1.79518 12.843 2.82647 14.545C3.85777 16.247 5.46149 17.5261 7.35022 18.1531C7.76789 18.2265 7.90126 17.9806 7.90126 17.7594C7.90126 17.5597 7.90525 17.0047 7.90126 16.3027C5.57011 16.8082 5.08855 15.1998 5.08855 15.1998C4.93505 14.6937 4.60562 14.2592 4.15977 13.9747C3.39949 13.4556 4.21647 13.4652 4.21647 13.4652C4.48198 13.5016 4.73565 13.5983 4.95809 13.7478C5.18052 13.8973 5.36583 14.0956 5.49984 14.3277C5.61325 14.5342 5.76645 14.7161 5.95059 14.863C6.13474 15.0099 6.34617 15.1188 6.57266 15.1835C6.79915 15.2482 7.03622 15.2673 7.27016 15.2398C7.5041 15.2123 7.73027 15.1387 7.9356 15.0233C7.97553 14.6001 8.16321 14.2047 8.46748 13.9077C6.60831 13.6952 4.65331 12.9773 4.65331 9.76766C4.64118 8.93529 4.95005 8.13022 5.51581 7.51957C5.25982 6.79763 5.28924 6.00518 5.59807 5.30422C5.59807 5.30422 6.30244 5.07901 7.90046 6.16353C9.27319 5.78686 10.722 5.78686 12.0948 6.16353C13.6976 5.07981 14.3956 5.30422 14.3956 5.30422C14.7046 6.0054 14.7342 6.79762 14.4786 7.51957C15.0446 8.13032 15.3533 8.93585 15.3403 9.76846C15.3403 12.9869 13.3821 13.6944 11.5158 13.9005C11.7162 14.1018 11.8711 14.3438 11.97 14.6101C12.0689 14.8764 12.1096 15.1608 12.0892 15.4442V17.7634C12.0892 17.987 12.2249 18.2345 12.6498 18.1531C14.5381 17.525 16.141 16.2451 17.1714 14.5427C18.2018 12.8403 18.5924 10.8266 18.2731 8.86244C17.9539 6.89825 16.9456 5.11192 15.4291 3.8235C13.9125 2.53507 11.9868 1.82874 9.99682 1.83106Z" stroke="#A786DF" stroke-linecap="round" stroke-linejoin="round"/>
</svg>
