<svg width="40" height="40" viewBox="0 0 40 40" fill="none" xmlns="http://www.w3.org/2000/svg">
<path d="M28.843 11.0965C28.4766 11.0965 28.1797 10.7996 28.1797 10.4333C28.1797 10.067 28.4766 9.77002 28.843 9.77002" stroke="#A786DF" stroke-linecap="round" stroke-linejoin="round"/>
<path d="M28.8428 11.0965C29.2092 11.0965 29.506 10.7996 29.506 10.4333C29.506 10.067 29.2092 9.77002 28.8428 9.77002" stroke="#A786DF" stroke-linecap="round" stroke-linejoin="round"/>
<path d="M3.70557 10.5324C3.70557 6.76233 6.76182 3.70605 10.5319 3.70605H28.7357C32.5057 3.70605 35.562 6.76233 35.562 10.5324V28.7361C35.562 32.5061 32.5057 35.5624 28.7357 35.5624H10.5319C6.76182 35.5624 3.70557 32.5061 3.70557 28.7361V10.5324Z" stroke="#A786DF" stroke-linecap="round" stroke-linejoin="round"/>
<path d="M12.8687 19.634C12.8687 20.5224 13.0436 21.4021 13.3836 22.2229C13.7236 23.0437 14.2219 23.7895 14.8502 24.4178C15.4784 25.046 16.2242 25.5443 17.045 25.8843C17.8658 26.2243 18.7455 26.3993 19.634 26.3993C20.5224 26.3993 21.4021 26.2243 22.2229 25.8843C23.0437 25.5443 23.7895 25.046 24.4178 24.4178C25.046 23.7895 25.5443 23.0437 25.8843 22.2229C26.2243 21.4021 26.3993 20.5224 26.3993 19.634C26.3993 17.8397 25.6865 16.1189 24.4178 14.8502C23.149 13.5814 21.4282 12.8687 19.634 12.8687C17.8397 12.8687 16.1189 13.5814 14.8502 14.8502C13.5814 16.1189 12.8687 17.8397 12.8687 19.634Z" stroke="#A786DF" stroke-linecap="round" stroke-linejoin="round"/>
</svg>
