<svg width="50" height="50" viewBox="0 0 50 50" fill="none" xmlns="http://www.w3.org/2000/svg">
<path d="M4.0365 8.02951C4.0365 8.55389 4.13978 9.07313 4.34045 9.55759C4.54112 10.042 4.83525 10.4822 5.20604 10.853C5.57683 11.2238 6.01702 11.5179 6.50148 11.7186C6.98594 11.9193 7.50518 12.0226 8.02956 12.0226C8.55393 12.0226 9.07317 11.9193 9.55763 11.7186C10.0421 11.5179 10.4823 11.2238 10.8531 10.853C11.2239 10.4822 11.518 10.042 11.7187 9.55759C11.9193 9.07313 12.0226 8.55389 12.0226 8.02951C12.0226 6.97049 11.6019 5.95484 10.8531 5.206C10.1042 4.45715 9.08858 4.03646 8.02956 4.03646C6.97053 4.03646 5.95488 4.45715 5.20604 5.206C4.45719 5.95484 4.0365 6.97049 4.0365 8.02951Z" stroke="#A786DF" stroke-linejoin="round"/>
<path d="M4.0365 45.9635V18.0122H12.0226V45.9635H4.0365Z" stroke="#A786DF" stroke-linejoin="round"/>
<path d="M17.0139 18.0122V45.9635H25V32.1715C25 29.9913 26.9966 25.9983 32.7765 25.9983C36.0568 25.9983 37.9775 27.6853 37.9775 30.9896V45.9635H45.9636V30.9896C45.9636 28.3761 45.3407 25.1258 43.1804 22.4504C40.8964 19.6214 37.3645 18.0122 32.7785 18.0122C29.7578 18.0122 27.1183 19.24 25 20.7394V18.0122H17.0139Z" stroke="#A786DF" stroke-linejoin="round"/>
</svg>
