<svg width="40" height="40" viewBox="0 0 40 40" fill="none" xmlns="http://www.w3.org/2000/svg">
<path d="M3.41846 20.0001C3.41846 24.3978 5.16545 28.6154 8.2751 31.7251C11.3848 34.8347 15.6024 36.5817 20.0001 36.5817C24.3978 36.5817 28.6154 34.8347 31.7251 31.7251C34.8347 28.6154 36.5817 24.3978 36.5817 20.0001C36.5817 15.6024 34.8347 11.3848 31.7251 8.2751C28.6154 5.16545 24.3978 3.41846 20.0001 3.41846C15.6024 3.41846 11.3848 5.16545 8.2751 8.2751C5.16545 11.3848 3.41846 15.6024 3.41846 20.0001Z" stroke="#A786DF" stroke-linecap="round" stroke-linejoin="round"/>
<path d="M27.2754 11.5403L25.8833 29.6379L18.2354 21.7898L9.17773 19.893L27.2754 11.5403Z" stroke="#A786DF" stroke-linecap="round" stroke-linejoin="round"/>
<path d="M14.8599 21.0779L16.2209 28.9356L21.2023 24.8087" stroke="#A786DF" stroke-linecap="round" stroke-linejoin="round"/>
<path d="M18.228 21.7516L21.1298 19.4302" stroke="#A786DF" stroke-linecap="round" stroke-linejoin="round"/>
</svg>
