<svg width="50" height="50" viewBox="0 0 50 50" fill="none" xmlns="http://www.w3.org/2000/svg">
<path d="M10.026 39.974V18.0122" stroke="#A786DF" stroke-linejoin="round"/>
<path d="M39.974 39.974V18.0122" stroke="#A786DF" stroke-linejoin="round"/>
<path d="M4.0365 37.9774V12.0226C4.0365 11.4931 4.24685 10.9852 4.62127 10.6108C4.99569 10.2364 5.50351 10.026 6.03303 10.026H43.9671C44.4966 10.026 45.0044 10.2364 45.3788 10.6108C45.7532 10.9852 45.9636 11.4931 45.9636 12.0226V37.9774C45.9636 38.5069 45.7532 39.0148 45.3788 39.3892C45.0044 39.7636 44.4966 39.974 43.9671 39.974H6.03303C5.50351 39.974 4.99569 39.7636 4.62127 39.3892C4.24685 39.0148 4.0365 38.5069 4.0365 37.9774Z" stroke="#A786DF"/>
<path d="M4.0365 13.5L25 28.9931L45.9636 13.5" stroke="#A786DF" stroke-linejoin="round"/>
<path d="M11.178 10.026L24.9999 20.0087L38.8219 10.026" stroke="#A786DF" stroke-linejoin="round"/>
</svg>
