<svg xmlns="http://www.w3.org/2000/svg" style="isolation:isolate" viewBox="0 0 512 512" id="Menu"><defs><clipPath id="a"><path d="M0 0h512v512H0z" fill="#000000" class="color000000 svgShape"></path></clipPath></defs><g clip-path="url(#a)" fill="#000000" class="color000000 svgShape"><path fill="#a786df" d="M470.06 185.32a11.008 11.008 0 0 1 11 11c0 2.92-1.16 5.72-3.23 7.78a11 11 0 0 1-7.77 3.22H41.94a11 11 0 0 1-7.77-3.22 10.973 10.973 0 0 1-3.23-7.78 11.008 11.008 0 0 1 11-11h428.12zm0-119.35a11 11 0 0 1 7.77 3.22c2.07 2.06 3.23 4.86 3.23 7.78a11.008 11.008 0 0 1-11 11H41.94a11.008 11.008 0 0 1-11-11c0-2.92 1.16-5.72 3.23-7.78a11 11 0 0 1 7.77-3.22h428.12zm0 238.71a11 11 0 0 1 7.77 3.22c2.07 2.06 3.23 4.86 3.23 7.78a11.008 11.008 0 0 1-11 11H41.94a11.008 11.008 0 0 1-11-11c0-2.92 1.16-5.72 3.23-7.78a11 11 0 0 1 7.77-3.22h428.12zm0 119.35a11.008 11.008 0 0 1 11 11c0 2.92-1.16 5.72-3.23 7.78a11 11 0 0 1-7.77 3.22H41.94a11 11 0 0 1-7.77-3.22 10.973 10.973 0 0 1-3.23-7.78 11.008 11.008 0 0 1 11-11h428.12z" class="color2d2d2d svgShape"></path></g></svg>