<svg xmlns="http://www.w3.org/2000/svg" fill="none" viewBox="-1.5 -1.5 48 48" height="48" width="48"><g id="html-five--language-five-code-programming-html"><path id="Vector 1677" stroke="#a786df" stroke-linejoin="round" d="M20.912812499999998 41.619375c-2.7965625000000003 -1.0996875 -8.746875 -3.8784374999999995 -13.423124999999999 -9.075a4.738125 4.738125 0 0 1 -1.0462500000000001 -1.936875c-0.864375 -3.1828125 -3.2859374999999997 -13.0171875 -3.598125 -24.4434375a2.6034375 2.6034375 0 0 1 2.3596874999999997 -2.686875C8.116875 3.200625 13.7578125 2.8125 22.5 2.8125c8.7421875 0 14.382187499999999 0.388125 17.295 0.6646875a2.6034375 2.6034375 0 0 1 2.35875 2.686875c-0.3121875 11.426250000000001 -2.7328125 21.260625 -3.598125 24.4434375a4.7371875 4.7371875 0 0 1 -1.0462500000000001 1.936875c-4.6753125 5.1965625 -10.625625 7.975312499999999 -13.4221875 9.075a4.321875 4.321875 0 0 1 -3.174375 0Z" stroke-width="3"></path><path id="Vector 1678" stroke="#a786df" stroke-linecap="round" stroke-linejoin="round" d="M14.0625 30c2.6746875 2.6746875 5.8265625 4.395 7.41375 5.162812499999999 0.650625 0.3140625 1.396875 0.3140625 2.0475000000000003 0C25.1109375 34.395 28.2628125 32.674687500000005 30.9375 30c0 0 1.081875 -3.6046875000000003 1.6640625 -8.285625 0.13499999999999998 -1.0884375 -0.729375 -2.026875 -1.82625 -2.026875H13.5825c-0.8278125000000001 0 -1.5543749999999998 -0.541875 -1.753125 -1.34625a59.555625000000006 59.555625000000006 0 0 1 -1.3453125000000001 -7.609687500000001 1.775625 1.775625 0 0 1 1.65375 -1.9696875C14.16 8.624062499999999 17.77125 8.4375 22.5 8.4375c7.5 0 12.1875 0.46875 12.1875 0.46875" stroke-width="3"></path></g></svg>