<svg width="600" height="600" viewBox="0 0 600 600" fill="none" xmlns="http://www.w3.org/2000/svg">
<g clip-path="url(#clip0_122_87)">
<path d="M427.658 427.5H277.658V224.492L407.357 295.545L427.658 427.5Z" fill="#2F2E41"/>
<path d="M305.368 391.67C359.153 391.67 402.755 348.069 402.755 294.284C402.755 240.5 359.153 196.898 305.368 196.898C251.584 196.898 207.982 240.5 207.982 294.284C207.982 348.069 251.584 391.67 305.368 391.67Z" fill="#FFB6B6"/>
<path d="M249.462 406.071L245.063 361.597L332.921 345.169L384.801 471.485L294.575 575.244L230.289 448.929L249.462 406.071Z" fill="#FFB6B6"/>
<path d="M515.459 508.748C514.365 509.887 513.248 511.015 512.132 512.132C508.59 515.673 504.981 519.113 501.293 522.451C446.03 572.571 375.124 600 300 600C230.741 600 165.068 576.688 111.936 533.774C111.902 533.752 111.88 533.729 111.846 533.695C110.233 532.398 108.643 531.079 107.053 529.737C107.335 528.925 107.639 528.124 107.944 527.335C125.03 482.82 158.774 461.041 179.256 451.511C189.406 446.786 196.297 445.06 196.297 445.06L220.342 401.752L237.271 433.331L249.744 456.609L300.925 552.101L345.079 442.162L358.759 408.079L362.267 399.35L378.947 412.331L394.737 424.613L426.53 431.628L452.323 437.323L487.353 445.06C501.519 456.598 510.135 478.545 514.951 505.816C515.132 506.786 515.301 507.767 515.459 508.748Z" fill="#A786DF"/>
<path d="M254.142 183.613C266.005 163.686 287.792 150.014 310.894 147.999C333.996 145.984 357.821 155.678 372.954 173.249C381.972 183.72 387.885 196.544 396.675 207.207C415.591 230.153 447.847 243.57 456.11 272.136C459.716 284.602 457.92 297.911 456.095 310.759C454.531 321.771 452.967 332.783 451.403 343.795C450.186 352.365 449.019 361.399 452.233 369.437C456.003 378.866 465.025 385.042 470.858 393.355C480.784 407.499 480.059 428.208 469.167 441.624C464.444 447.441 458.182 451.829 453.23 457.454C448.278 463.078 444.605 470.768 446.679 477.969C450.652 491.764 472.285 495.072 474.658 509.23C475.871 516.469 470.871 523.697 464.321 527.007C457.77 530.317 450.059 530.413 442.773 529.528C415.081 526.162 389.441 508.859 375.959 484.438C362.476 460.017 361.495 429.101 373.401 403.874C383.179 383.154 401.354 364.845 401.156 341.934C401.048 329.453 395.323 317.795 389.725 306.639C378.267 283.806 366.809 260.972 355.352 238.139C349.214 225.907 342.091 212.727 329.456 207.472C319.69 203.412 308.61 204.987 298.165 206.648C287.72 208.308 276.656 209.925 266.861 205.935C257.066 201.945 249.666 190.089 254.332 180.598" fill="#2F2E41"/>
<path d="M271.208 184.653C252.393 178.46 231.287 188.402 218.549 203.572C205.811 218.741 199.632 238.202 193.746 257.116C190.374 267.949 187.003 278.783 183.631 289.617C180.459 299.808 177.288 309.999 174.116 320.191C170.385 332.178 166.624 344.913 169.686 357.088C171.899 365.89 177.595 373.883 177.717 382.958C177.845 392.438 171.909 400.761 166.706 408.687C161.503 416.613 156.619 426.029 159.098 435.18C162.868 449.1 182.221 456.751 181.16 471.132C180.806 475.932 178.03 480.372 178.081 485.184C178.145 491.307 182.939 496.598 188.555 499.037C194.172 501.477 200.489 501.609 206.612 501.502C225.392 501.172 244.137 498.941 262.47 494.856C269.524 493.284 276.696 491.357 282.568 487.144C288.439 482.931 292.819 475.951 292.055 468.765C290.864 457.567 278.824 451.214 272.749 441.733C266.781 432.421 266.919 420.621 264.346 409.864C260.809 395.08 252.075 382.173 245.518 368.459C220.868 316.899 229.497 251.18 266.622 207.732C269.905 203.89 273.491 200.026 274.861 195.162C276.23 190.298 274.465 184.101 269.707 182.4" fill="#2F2E41"/>
<path d="M512.132 87.8684C455.47 31.2067 380.132 0 300 0C219.868 0 144.53 31.2067 87.8684 87.8684C31.2067 144.53 0 219.868 0 300C0 373.139 25.9962 442.286 73.6353 496.883C78.1805 502.105 82.9286 507.192 87.8684 512.132C89.0301 513.293 90.203 514.455 91.3873 515.583C94.5451 518.639 97.7594 521.628 101.03 524.526C103.015 526.297 105.023 528.034 107.053 529.737C108.643 531.079 110.233 532.398 111.846 533.695C111.88 533.729 111.902 533.752 111.936 533.774C165.068 576.688 230.741 600 300 600C375.124 600 446.03 572.571 501.293 522.451C504.981 519.113 508.59 515.673 512.132 512.132C513.248 511.015 514.365 509.887 515.459 508.748C518.504 505.613 521.459 502.421 524.346 499.184C573.259 444.237 600 374.177 600 300C600 219.868 568.793 144.53 512.132 87.8684ZM523.613 496.376C520.793 499.579 517.906 502.737 514.951 505.816C510.35 510.609 505.601 515.256 500.695 519.733C498.835 521.447 496.951 523.117 495.045 524.774C475.793 541.523 454.365 555.823 431.256 567.214C423.147 571.218 414.835 574.861 406.331 578.12C373.297 590.797 337.444 597.744 300 597.744C263.865 597.744 229.218 591.271 197.154 579.429C183.992 574.579 171.271 568.816 159.056 562.218C157.263 561.248 155.481 560.267 153.71 559.263C144.395 553.985 135.383 548.222 126.733 541.996C120.271 537.361 114 532.477 107.944 527.334C105.823 525.541 103.726 523.726 101.662 521.865C98.3007 518.876 95.0075 515.797 91.7933 512.639C85.703 506.673 79.8835 500.459 74.3233 493.996C29.4248 441.846 2.25564 374.041 2.25564 300C2.25564 135.823 135.823 2.25564 300 2.25564C464.177 2.25564 597.744 135.823 597.744 300C597.744 375.18 569.741 443.932 523.613 496.376Z" fill="#3F3D56"/>
</g>
<defs>
<clipPath id="clip0_122_87">
<rect width="600" height="600" fill="white"/>
</clipPath>
</defs>
</svg>
