<svg width="680" height="400" viewBox="0 0 680 400" fill="none" xmlns="http://www.w3.org/2000/svg">
<g clip-path="url(#clip0_122_216)">
<path d="M223.937 400C203.419 400 182.931 399.569 162.474 398.707C133.243 397.475 103.017 396.202 74.9233 377.917C55.2703 365.128 37.8646 344.609 24.5882 318.576C15.7146 300.932 9.20799 281.79 5.29708 261.822C-1.99829 225.469 -1.7498 187.592 6.02165 151.375C8.74506 138.957 12.4995 126.883 17.231 115.326C37.7188 65.5414 75.0871 32.1226 119.755 23.6388C120.123 23.5827 120.496 23.5733 120.867 23.611C121.068 23.6236 121.268 23.6371 121.472 23.6271L121.735 23.529C122.409 23.2543 123.101 23.0459 123.804 22.906C192.693 10.8718 265.519 35.2212 334.403 93.3202C387.664 138.248 458.249 162.441 550.194 167.282L551.499 167.362C577.095 169.087 601.853 181.47 623.1 203.172C644.072 224.593 659.818 253.171 668.637 285.82C669.721 289.801 670.715 293.944 671.59 298.135C672.406 302.029 672.348 306.105 671.423 309.966C670.498 313.826 668.738 317.34 666.312 320.166V320.174L666.083 320.45C665.532 321.093 664.952 321.71 664.359 322.284L663.662 322.958C657.786 328.638 653.145 333.125 647.591 336.61C643.887 338.918 639.947 340.663 635.866 341.804C613.461 348.214 590.707 354.157 568.238 359.469C524.602 369.793 479.816 378.31 435.125 384.781C365.06 394.919 294.532 400.001 223.937 400ZM120.345 25.3742C120.207 25.3727 120.07 25.3836 119.934 25.4069C75.6846 33.8114 38.6701 66.9021 18.3854 116.194C13.7006 127.636 9.98333 139.591 7.287 151.885C-0.413628 187.781 -0.659026 225.322 6.57145 261.353C10.4441 281.129 16.8876 300.088 25.6756 317.564C38.822 343.341 56.0497 363.655 75.4966 376.309C103.338 394.429 133.422 395.697 162.515 396.922C253.509 400.737 344.617 396.085 434.984 383.007C479.646 376.539 524.403 368.028 568.01 357.71C590.464 352.403 613.202 346.464 635.593 340.058C639.575 338.946 643.42 337.243 647.035 334.991C652.477 331.577 657.074 327.132 662.893 321.507L663.591 320.833C664.1 320.339 664.601 319.811 665.08 319.262L665.217 319.093C669.999 313.437 671.859 305.974 670.319 298.62V298.619C669.453 294.473 668.47 290.374 667.396 286.435C649.382 219.739 602.781 172.605 551.436 169.145L550.138 169.065C508.139 166.853 471.386 160.727 437.785 150.335C397.674 137.93 362.655 119.256 333.703 94.8338C265.082 36.9575 192.56 12.6986 123.972 24.6758C123.332 24.8055 122.701 24.9972 122.088 25.2491L121.614 25.4047C121.345 25.4188 121.075 25.415 120.806 25.3933C120.648 25.3838 120.495 25.3742 120.345 25.3742Z" fill="#F0F0F0"/>
<path d="M212.404 130.325C210.505 128.186 208.562 116.261 206.137 115.05C207.949 119.751 206.633 120.996 206.624 126.155C206.646 129.085 206.355 132.006 205.756 134.851H164.675V97.2298C164.675 93.8495 165.242 90.5022 166.345 87.3792C167.447 84.2562 169.063 81.4185 171.1 79.0283C173.137 76.638 175.555 74.742 178.216 73.4484C180.878 72.1549 183.73 71.4892 186.611 71.4893C187.711 71.5144 188.803 71.7021 189.863 72.0478C193.394 73.1665 196.612 75.355 199.195 78.3939C201.777 81.4329 203.633 85.2153 204.577 89.3618C207.709 102.794 212.69 125.153 212.404 130.325Z" fill="#2F2E41"/>
<path d="M167.086 176.605L167.106 147.282L152.416 148.823L157.601 167.317L155.174 213.802C153.998 214.112 152.923 214.817 152.082 215.831C151.241 216.845 150.669 218.124 150.437 219.513C150.204 220.902 150.321 222.34 150.774 223.652C151.226 224.964 151.993 226.093 152.983 226.902C153.973 227.711 155.141 228.164 156.347 228.207C157.552 228.25 158.742 227.88 159.772 227.143C160.801 226.406 161.626 225.333 162.145 224.056C162.664 222.778 162.855 221.351 162.695 219.949L167.086 176.605Z" fill="#FFB6B6"/>
<path d="M195.994 386.15L201.928 386.149L204.751 359.289H195.992L195.994 386.15Z" fill="#FFB6B6"/>
<path d="M193.984 382.714L203.365 382.057V386.774L212.284 394.002C212.725 394.359 213.057 394.871 213.231 395.465C213.406 396.059 213.414 396.703 213.255 397.303C213.095 397.903 212.777 398.427 212.346 398.799C211.914 399.171 211.393 399.372 210.858 399.372H199.689L197.764 394.707L197.012 399.372H192.801L193.984 382.714Z" fill="#2F2E41"/>
<path d="M161.679 386.15L167.615 386.149L170.437 359.289H161.679L161.679 386.15Z" fill="#FFB6B6"/>
<path d="M159.67 382.714L169.051 382.057V386.774L177.97 394.002C178.411 394.359 178.742 394.871 178.917 395.465C179.092 396.059 179.1 396.703 178.94 397.303C178.781 397.903 178.463 398.427 178.031 398.799C177.6 399.171 177.079 399.372 176.543 399.372H165.375L163.45 394.707L162.698 399.372H158.487L159.67 382.714Z" fill="#2F2E41"/>
<path d="M190.709 115.616L178.415 115.899L169.737 126.648L162.78 127.845C159.633 128.387 156.739 130.179 154.583 132.924C152.427 135.668 151.139 139.197 150.935 142.922L152.14 150.691H159.372L163.555 179.515C161.929 184.379 161.818 188.218 165.157 189.726L175.523 212.638L206.137 196.515C207.689 193.383 208.187 190.237 206.6 187.178L208.788 143.054H216.147C216.147 134.801 213.768 127.844 206.779 126.926C204.004 126.573 201.215 126.386 198.423 126.365L190.709 115.616Z" fill="#E6E6E6"/>
<path d="M206.137 196.515C206.137 196.515 176.246 202.738 165.157 189.726C165.157 189.726 164.031 191.969 162.335 195.688C161.847 196.758 160.905 197.482 160.336 198.778C159.819 199.955 158.489 201.403 157.925 202.738C157.472 203.813 158.199 205.216 157.728 206.377C152.049 220.354 145.415 240.069 146.837 253.087C147.754 261.483 149.649 281.018 151.644 302C151.8 303.639 150.537 305.745 150.694 307.397C150.842 308.955 152.409 310.059 152.556 311.621C152.655 312.658 151.56 313.716 151.658 314.752C151.765 315.888 153.065 317.002 153.172 318.134C155.905 347.105 158.408 374.153 158.408 374.153H172.389L175.027 312.378L172.871 289.86L177.933 244.319L184.924 287.597L185.823 311.954L193.211 375.284H206.137V313.977L207.101 310.792L206.137 306.707L207.101 302.306L206.137 297.513V196.515Z" fill="#2F2E41"/>
<path d="M194.482 107.25C192.578 110.219 189.869 112.338 186.801 113.258C183.733 114.178 180.49 113.845 177.605 112.314C174.72 110.782 172.366 108.144 170.93 104.832C169.493 101.521 169.061 97.734 169.704 94.0958C170.347 90.4576 172.026 87.1847 174.466 84.8162C176.906 82.4477 179.96 81.1248 183.126 81.0654C186.292 81.0059 189.381 82.2134 191.884 84.4891C194.387 86.7648 196.155 89.9729 196.897 93.5852C196.937 93.7812 196.971 93.9761 197.004 94.1784C197.395 96.4425 197.373 98.7784 196.939 101.032C196.504 103.285 195.667 105.405 194.482 107.25Z" fill="#FFB6B6"/>
<path d="M191.577 97.92C191.281 96.179 190.533 94.5881 189.436 93.3658C189.544 95.0342 189.347 96.7105 188.858 98.282C185.193 98.6629 181.511 97.8071 178.246 95.8155C175.788 93.8581 172.659 94.0278 169.014 95.8155C169.014 93.7352 169.363 91.6753 170.041 89.7533C170.719 87.8314 171.714 86.085 172.967 84.6141C174.221 83.1431 175.709 81.9763 177.347 81.1804C178.985 80.3844 180.74 79.9749 182.513 79.9751H184.924C188.504 79.9759 191.937 81.645 194.468 84.6155C197 87.586 198.422 91.6146 198.423 95.8155C196.198 96.7518 193.907 97.456 191.577 97.92Z" fill="#2F2E41"/>
<path d="M86.1163 299.811C107.535 299.811 124.897 279.437 124.897 254.304C124.897 229.171 107.535 208.797 86.1163 208.797C64.6981 208.797 47.3352 229.171 47.3352 254.304C47.3352 279.437 64.6981 299.811 86.1163 299.811Z" fill="#F0F0F0"/>
<path d="M333.251 91.0141C354.669 91.0141 372.032 70.6399 372.032 45.507C372.032 20.3742 354.669 0 333.251 0C311.833 0 294.47 20.3742 294.47 45.507C294.47 70.6399 311.833 91.0141 333.251 91.0141Z" fill="#F0F0F0"/>
<path d="M641.219 306.95C662.637 306.95 680 286.575 680 261.442C680 236.31 662.637 215.935 641.219 215.935C619.8 215.935 602.438 236.31 602.438 261.442C602.438 286.575 619.8 306.95 641.219 306.95Z" fill="#F0F0F0"/>
<path d="M403.209 50.4698V153.66C403.209 155.804 402.489 157.861 401.204 159.384C399.919 160.908 398.174 161.775 396.347 161.797C396.322 161.8 396.297 161.802 396.272 161.801H386.036C377.847 161.801 369.993 157.984 364.203 151.189C358.412 144.394 355.159 135.178 355.159 125.568V50.4698C355.159 48.3107 355.89 46.2401 357.191 44.7134C358.492 43.1867 360.256 42.329 362.096 42.329H366.244C364.322 48.9058 390.398 51.6747 391.83 42.329H396.272C398.111 42.329 399.876 43.1867 401.177 44.7134C402.478 46.2401 403.209 48.3107 403.209 50.4698Z" fill="#A786DF"/>
<path d="M372.836 34.6128C372.836 34.3299 372.932 34.0588 373.103 33.8588C373.273 33.6588 373.504 33.5463 373.745 33.5459H379.928C380.168 33.5467 380.399 33.6595 380.569 33.8595C380.739 34.0595 380.834 34.3304 380.834 34.6128C380.834 34.8952 380.739 35.1661 380.569 35.3661C380.399 35.5661 380.168 35.6789 379.928 35.6797H373.745C373.504 35.6793 373.273 35.5669 373.103 35.3668C372.932 35.1668 372.836 34.8957 372.836 34.6128Z" fill="#3F3D56"/>
<path d="M398.396 174.89H359.298C356.265 174.886 353.357 173.47 351.212 170.953C349.067 168.436 347.86 165.024 347.857 161.464V89.3302C347.642 89.1493 347.467 88.9109 347.347 88.6349C347.226 88.3588 347.164 88.0531 347.164 87.743V80.4883C347.164 80.1782 347.226 79.8725 347.347 79.5965C347.467 79.3205 347.642 79.0823 347.857 78.9015V76.9544C347.642 76.7736 347.467 76.5353 347.347 76.2593C347.226 75.9833 347.164 75.6777 347.164 75.3676V68.1125C347.164 67.8024 347.226 67.4967 347.347 67.2207C347.467 66.9447 347.642 66.7065 347.857 66.5257V63.0066C347.592 62.8395 347.37 62.5911 347.216 62.2878C347.062 61.9845 346.981 61.6378 346.982 61.2847V54.0301C346.981 53.6769 347.062 53.3301 347.216 53.0268C347.37 52.7234 347.592 52.4749 347.857 52.3077V42.665C347.86 39.1056 349.067 35.6931 351.212 33.1763C353.357 30.6594 356.265 29.2437 359.298 29.2397H398.396C401.429 29.2437 404.337 30.6595 406.482 33.1763C408.627 35.6932 409.833 39.1057 409.837 42.6651V63.6841C410.043 63.8353 410.213 64.0455 410.331 64.295C410.448 64.5444 410.51 64.8249 410.51 65.1101V78.9433C410.51 79.2285 410.448 79.5091 410.331 79.7586C410.213 80.0081 410.043 80.2184 409.837 80.3697V161.464C409.833 165.024 408.627 168.436 406.482 170.953C404.337 173.47 401.429 174.886 398.396 174.89ZM359.298 31.0243C356.668 31.0277 354.146 32.2553 352.287 34.4376C350.427 36.6199 349.381 39.5788 349.377 42.6651V53.8257L348.646 53.8589C348.608 53.8604 348.572 53.8791 348.545 53.9109C348.519 53.9428 348.503 53.9854 348.503 54.0301V61.2847C348.504 61.3293 348.519 61.3719 348.545 61.4037C348.572 61.4355 348.608 61.4542 348.646 61.4559L349.377 61.4886V67.7787L348.799 67.946C348.767 67.955 348.738 67.9763 348.718 68.0064C348.697 68.0365 348.685 68.0738 348.685 68.1124V75.3676C348.685 75.4062 348.697 75.4435 348.718 75.4736C348.738 75.5037 348.767 75.5249 348.799 75.534L349.377 75.7013V80.1545L348.799 80.3218C348.767 80.3308 348.738 80.3521 348.718 80.3822C348.697 80.4123 348.685 80.4496 348.685 80.4882V87.7429C348.685 87.7816 348.697 87.819 348.718 87.8492C348.738 87.8794 348.767 87.9007 348.799 87.9098L349.377 88.0771V161.464C349.381 164.551 350.427 167.51 352.287 169.692C354.146 171.874 356.668 173.102 359.298 173.105H398.396C401.026 173.102 403.547 171.874 405.407 169.692C407.267 167.51 408.313 164.551 408.316 161.464V78.8418H408.989V65.2121H408.316V42.665C408.313 39.5788 407.267 36.62 405.407 34.4377C403.547 32.2554 401.026 31.0278 398.396 31.0243L359.298 31.0243Z" fill="#3F3D56"/>
<path d="M383.382 35.6797C383.884 35.6797 384.292 35.202 384.292 34.6128C384.292 34.0236 383.884 33.5459 383.382 33.5459C382.88 33.5459 382.473 34.0236 382.473 34.6128C382.473 35.202 382.88 35.6797 383.382 35.6797Z" fill="#3F3D56"/>
<path d="M185.602 241.279H83.8684C82.4237 241.275 81.0391 240.599 80.0175 239.401C78.9959 238.202 78.4202 236.578 78.4163 234.882V176.714C78.42 175.019 78.9955 173.395 80.017 172.196C81.0385 170.997 82.4229 170.321 83.8676 170.317H185.601C187.046 170.321 188.431 170.996 189.452 172.195C190.474 173.394 191.05 175.018 191.053 176.714V234.881C191.05 236.577 190.474 238.201 189.453 239.4C188.431 240.599 187.047 241.275 185.602 241.279Z" fill="white"/>
<path d="M185.602 241.279H83.8684C82.4237 241.275 81.0391 240.599 80.0175 239.401C78.9959 238.202 78.4202 236.578 78.4163 234.882V176.714C78.42 175.019 78.9955 173.395 80.017 172.196C81.0385 170.997 82.4229 170.321 83.8676 170.317H185.601C187.046 170.321 188.431 170.996 189.452 172.195C190.474 173.394 191.05 175.018 191.053 176.714V234.881C191.05 236.577 190.474 238.201 189.453 239.4C188.431 240.599 187.047 241.275 185.602 241.279ZM83.8684 172.101C82.8265 172.105 81.8283 172.592 81.0917 173.457C80.355 174.321 79.94 175.493 79.9371 176.715V234.881C79.9401 236.104 80.3554 237.275 81.0921 238.14C81.8289 239.004 82.8273 239.491 83.8691 239.495H185.601C186.643 239.491 187.641 239.004 188.378 238.139C189.115 237.275 189.53 236.103 189.533 234.881V176.715C189.53 175.492 189.114 174.321 188.377 173.456C187.641 172.592 186.642 172.105 185.601 172.101L83.8684 172.101Z" fill="#3F3D56"/>
<path d="M140.188 232.683C120.124 232.683 99.2022 232.458 91.3962 232.312C90.3692 232.287 89.3911 231.792 88.6709 230.933C87.9506 230.073 87.5452 228.917 87.5413 227.712V179.562C87.5417 179.131 87.6877 178.717 87.9475 178.411C88.2073 178.106 88.5596 177.933 88.9275 177.932H180.539C180.907 177.932 181.259 178.103 181.52 178.408C181.78 178.713 181.927 179.126 181.928 179.558V212.227C181.911 217.559 180.114 222.672 176.921 226.467C173.729 230.263 169.396 232.439 164.852 232.528C157.577 232.64 148.962 232.683 140.188 232.683Z" fill="#A786DF"/>
<path d="M175.101 209.225H92.3229C91.6298 209.223 90.9541 208.97 90.3876 208.502C89.8211 208.033 89.3912 207.371 89.1565 206.606L79.7872 175.763C79.6067 175.168 79.5504 174.531 79.6232 173.905C79.6959 173.279 79.8955 172.683 80.2053 172.167C80.515 171.65 80.9259 171.229 81.4033 170.937C81.8807 170.646 82.4107 170.493 82.9488 170.492L186.42 170.323C186.912 170.322 187.398 170.448 187.844 170.692C188.29 170.936 188.685 171.291 189.001 171.733C189.317 172.176 189.546 172.694 189.673 173.251C189.8 173.809 189.821 174.393 189.735 174.961L189.815 175.001L189.518 175.814L189.515 175.822L178.189 206.834C177.931 207.544 177.5 208.149 176.951 208.575C176.402 209 175.759 209.226 175.101 209.225ZM186.425 172.108L82.9518 172.277C82.657 172.277 82.3666 172.361 82.1051 172.52C81.8435 172.68 81.6185 172.911 81.4488 173.194C81.2791 173.477 81.1697 173.803 81.1298 174.146C81.09 174.489 81.1208 174.838 81.2197 175.163L90.5886 206.006C90.7174 206.425 90.953 206.788 91.2635 207.044C91.5739 207.301 91.9442 207.439 92.324 207.441H175.101C175.461 207.441 175.813 207.317 176.114 207.084C176.414 206.852 176.649 206.52 176.791 206.132L188.117 175.119C188.237 174.79 188.286 174.432 188.259 174.076C188.232 173.72 188.13 173.377 187.962 173.079C187.794 172.78 187.566 172.535 187.298 172.366C187.03 172.196 186.73 172.107 186.425 172.108Z" fill="#3F3D56"/>
<path d="M134.58 215.939C138.16 215.939 141.062 212.534 141.062 208.333C141.062 204.133 138.16 200.727 134.58 200.727C131.001 200.727 128.099 204.133 128.099 208.333C128.099 212.534 131.001 215.939 134.58 215.939Z" fill="white"/>
<path d="M379.434 149.909C383.014 149.909 385.916 146.504 385.916 142.303C385.916 138.103 383.014 134.697 379.434 134.697C375.854 134.697 372.952 138.103 372.952 142.303C372.952 146.504 375.854 149.909 379.434 149.909Z" fill="white"/>
<path d="M624.589 252.627L607.274 232.568C606.431 231.584 605.431 230.804 604.331 230.275C603.231 229.745 602.053 229.475 600.864 229.48H600.803C599.605 229.485 598.419 229.767 597.315 230.313C596.211 230.858 595.21 231.655 594.37 232.657C590.498 237.255 588.296 243.434 588.227 249.897C588.157 256.36 590.226 262.603 593.997 267.314C594.18 267.546 594.37 267.769 594.56 267.992C595.613 269.22 596.775 270.312 598.027 271.249C601.45 273.844 605.442 275.217 609.517 275.202H609.646C612.444 275.19 615.211 274.529 617.789 273.254C620.367 271.98 622.704 270.119 624.665 267.778C626.364 265.755 627.31 263.024 627.296 260.184C627.281 257.344 626.308 254.626 624.589 252.627ZM623.585 266.52C620.37 270.32 616.137 272.704 611.6 273.269C607.062 273.835 602.497 272.548 598.674 269.625C597.58 268.776 596.559 267.804 595.624 266.725C591.894 262.401 589.779 256.515 589.746 250.363C589.714 244.21 591.765 238.293 595.45 233.915C596.15 233.078 596.985 232.412 597.907 231.957C598.829 231.502 599.818 231.267 600.818 231.265H600.864C601.854 231.261 602.835 231.486 603.751 231.927C604.667 232.368 605.499 233.016 606.202 233.835L623.516 253.903C624.95 255.566 625.762 257.829 625.775 260.194C625.788 262.56 625 264.835 623.585 266.52Z" fill="#3F3D56"/>
<path d="M567.778 186.793L550.463 166.725C548.759 164.741 546.454 163.631 544.053 163.638H544C542.8 163.644 541.614 163.928 540.508 164.475C539.403 165.022 538.4 165.82 537.559 166.823C534.359 170.638 532.283 175.555 531.637 180.854C530.992 186.153 531.809 191.555 533.97 196.269L533.978 196.278C534.869 198.206 535.977 199.986 537.27 201.569C537.415 201.766 537.582 201.962 537.749 202.158C541.726 206.79 547.104 209.382 552.707 209.368H552.844C555.641 209.354 558.409 208.69 560.986 207.415C563.564 206.139 565.901 204.277 567.862 201.935C568.704 200.935 569.369 199.749 569.821 198.447C570.272 197.144 570.501 195.75 570.493 194.344C570.485 192.938 570.241 191.547 569.775 190.252C569.31 188.956 568.631 187.781 567.778 186.793ZM566.774 200.686C564.954 202.859 562.785 204.587 560.393 205.771C558.001 206.955 555.432 207.571 552.836 207.584H552.707C548.808 207.582 544.996 206.227 541.751 203.69C538.506 201.153 535.973 197.547 534.471 193.325C532.968 189.103 532.562 184.454 533.306 179.962C534.049 175.471 535.907 171.337 538.647 168.082C540.064 166.4 541.993 165.447 544.009 165.432C546.024 165.417 547.963 166.341 549.399 168.001L566.714 188.06C568.146 189.726 568.957 191.991 568.968 194.358C568.98 196.725 568.191 199.001 566.774 200.686Z" fill="#3F3D56"/>
<path d="M625.695 258.933L606.606 236.81C605.355 235.362 603.665 234.557 601.907 234.569C600.15 234.582 598.469 235.412 597.232 236.878C595.686 238.711 594.462 240.885 593.632 243.273C592.801 245.662 592.38 248.219 592.393 250.799C592.405 253.379 592.851 255.93 593.704 258.308C594.558 260.685 595.802 262.842 597.366 264.655C598.93 266.468 600.784 267.901 602.82 268.873C604.857 269.844 607.036 270.336 609.235 270.318C611.433 270.301 613.607 269.775 615.632 268.771C617.657 267.767 619.494 266.304 621.037 264.467L625.695 258.933Z" fill="#A786DF"/>
<path d="M568.888 193.096L549.799 170.973C548.547 169.525 546.857 168.719 545.1 168.732C543.343 168.745 541.662 169.575 540.425 171.041C538.879 172.874 537.655 175.047 536.825 177.436C535.994 179.825 535.573 182.382 535.586 184.962C535.598 187.541 536.044 190.093 536.897 192.47C537.75 194.848 538.995 197.005 540.559 198.818C542.123 200.63 543.976 202.064 546.013 203.035C548.049 204.007 550.229 204.498 552.428 204.481C554.626 204.463 556.8 203.938 558.825 202.934C560.85 201.93 562.687 200.467 564.23 198.63L568.888 193.096Z" fill="#A786DF"/>
<path d="M604.719 272.712L604.263 274.122C602.118 273.167 600.04 272.21 598.027 271.249C562.379 254.179 545.361 234.201 533.978 196.278L533.97 196.269C533.43 194.485 532.905 192.658 532.396 190.791L533.597 190.335C533.999 192.132 534.587 193.864 535.346 195.493C535.97 197.572 536.611 199.597 537.27 201.569C547.969 233.576 563.748 251.868 593.997 267.314C595.518 268.09 597.077 268.86 598.674 269.625C600.528 271.042 602.571 272.086 604.719 272.712Z" fill="#3F3D56"/>
<path d="M550.146 207.744L549.077 209.014L588.572 254.787L589.641 253.517L550.146 207.744Z" fill="#3F3D56"/>
<path d="M215.779 169.817L215.799 140.494L201.11 142.034L206.294 160.528L187.476 194.002C186.299 194.312 185.225 195.016 184.383 196.03C183.542 197.045 182.97 198.324 182.738 199.713C182.506 201.101 182.623 202.539 183.075 203.851C183.527 205.163 184.295 206.292 185.285 207.101C186.274 207.91 187.443 208.364 188.648 208.406C189.854 208.449 191.044 208.08 192.073 207.343C193.103 206.605 193.927 205.533 194.446 204.255C194.965 202.978 195.156 201.551 194.996 200.148L215.779 169.817Z" fill="#FFB6B6"/>
</g>
<defs>
<clipPath id="clip0_122_216">
<rect width="680" height="400" fill="white"/>
</clipPath>
</defs>
</svg>
